<?xml version="1.0" standalone="no"?>
<!DOCTYPE svg PUBLIC "-//W3C//DTD SVG 20010904//EN"
 "http://www.w3.org/TR/2001/REC-SVG-20010904/DTD/svg10.dtd">
<svg version="1.0" xmlns="http://www.w3.org/2000/svg"
 width="700.000000pt" height="700.000000pt" viewBox="0 0 700.000000 700.000000"
 preserveAspectRatio="xMidYMid meet">
<metadata>
Created by potrace 1.14, written by Peter Selinger 2001-2017
</metadata>
<g transform="translate(0.000000,700.000000) scale(0.100000,-0.100000)"
fill="#000000" stroke="none">
<path d="M1942 6558 c-223 -18 -412 -129 -527 -308 -69 -107 -98 -209 -99
-340 0 -98 6 -149 49 -395 25 -141 102 -392 166 -538 151 -345 340 -591 704
-916 179 -160 271 -254 317 -325 90 -139 96 -297 16 -450 -25 -47 -69 -97
-191 -216 -252 -246 -460 -452 -488 -485 -189 -226 -348 -514 -441 -800 -65
-201 -128 -523 -132 -675 -7 -273 155 -515 416 -622 37 -15 96 -32 130 -39 91
-17 3136 -19 3252 -2 192 28 365 139 471 303 84 130 116 283 94 451 -16 119
-20 144 -40 244 -86 435 -250 798 -502 1110 -77 96 -243 265 -386 395 -306
278 -375 381 -374 555 2 167 75 271 388 550 348 309 544 565 696 905 41 91 99
249 114 310 2 8 15 60 29 115 25 102 52 240 62 317 3 24 9 66 13 93 33 223
-41 433 -207 586 -109 101 -240 161 -382 175 -95 9 -3036 11 -3148 2z m3168
-454 c57 -27 98 -67 122 -122 23 -51 20 -108 -13 -302 -54 -317 -155 -586
-307 -814 -115 -173 -239 -307 -512 -551 -236 -210 -363 -377 -418 -545 -31
-99 -42 -160 -43 -260 -3 -256 91 -463 314 -690 40 -41 120 -118 178 -169 410
-372 591 -633 714 -1031 25 -80 60 -222 69 -280 3 -19 10 -62 16 -95 23 -136
23 -180 2 -228 -25 -57 -72 -101 -131 -124 -43 -17 -132 -18 -1601 -18 -1484
0 -1557 1 -1603 18 -61 24 -121 86 -137 141 -15 54 -8 123 31 321 35 174 56
254 106 385 124 330 306 579 633 867 30 26 112 104 181 173 195 192 295 355
334 544 15 77 21 229 10 291 -3 17 -8 46 -11 65 -16 93 -88 249 -159 345 -56
74 -161 182 -290 300 -125 113 -243 223 -274 255 -204 214 -331 411 -424 660
-82 219 -142 506 -141 671 0 57 5 72 30 106 36 50 82 83 138 97 30 8 508 11
1592 11 1541 -1 1549 -1 1594 -21z"/>
<path d="M2453 5014 c-38 -19 -52 -65 -35 -114 29 -83 204 -266 452 -473 300
-251 371 -327 401 -429 11 -37 14 -1443 3 -1518 -7 -49 -51 -145 -92 -200 -78
-106 -249 -244 -542 -441 -85 -57 -157 -106 -160 -109 -3 -3 -27 -21 -55 -39
-27 -19 -52 -37 -55 -41 -3 -3 -37 -31 -77 -63 -138 -112 -184 -183 -185 -286
-1 -101 59 -180 152 -199 27 -6 548 -9 1270 -8 1143 1 1227 3 1257 19 72 38
105 98 104 188 0 160 -164 326 -621 629 -245 162 -330 227 -424 328 -50 54
-104 150 -116 208 -8 37 -11 284 -11 786 l0 731 30 61 c44 90 122 167 386 381
193 157 397 365 443 452 20 37 14 89 -12 120 l-24 28 -1029 2 c-925 2 -1031 1
-1060 -13z"/>
</g>
</svg>
